<svg width="40" height="40" viewBox="0 0 40 40" fill="none" xmlns="http://www.w3.org/2000/svg">
<path d="M34.425 31.6759H36.6667V17.6093C36.5083 16.3759 35.95 11.2509 35.4167 8.64261C35.3589 8.02769 35.1805 7.4302 34.8917 6.88427C34.327 6.12151 33.5503 5.54186 32.6583 5.21761C31.0815 4.49857 29.4174 3.9887 27.7083 3.70094C26.2635 3.45134 24.7996 3.32865 23.3333 3.33427C21.8588 3.32718 20.3864 3.44988 18.9333 3.70094C17.2243 3.9887 15.5602 4.49857 13.9833 5.21761C13.0914 5.54186 12.3147 6.12151 11.75 6.88427C11.4612 7.4302 11.2828 8.02769 11.225 8.64261C10.6917 11.2843 10.1333 16.3759 10 17.6093V31.6759H12.2417M34.425 31.6759V33.9176C34.4423 34.1794 34.4057 34.4419 34.3174 34.6889C34.2291 34.936 34.091 35.1623 33.9117 35.3538C33.7325 35.5453 33.5158 35.698 33.2751 35.8023C33.0344 35.9067 32.7748 35.9606 32.5125 35.9606C32.2502 35.9606 31.9906 35.9067 31.7499 35.8023C31.5092 35.698 31.2926 35.5453 31.1133 35.3538C30.934 35.1623 30.7959 34.936 30.7076 34.6889C30.6193 34.4419 30.5827 34.1794 30.6 33.9176V31.6759H16.0667V33.9176C16.084 34.1794 16.0473 34.4419 15.959 34.6889C15.8707 34.936 15.7327 35.1623 15.5534 35.3538C15.3741 35.5453 15.1574 35.698 14.9167 35.8023C14.6761 35.9067 14.4165 35.9606 14.1542 35.9606C13.8918 35.9606 13.6323 35.9067 13.3916 35.8023C13.1509 35.698 12.9342 35.5453 12.7549 35.3538C12.5756 35.1623 12.4376 34.936 12.3493 34.6889C12.261 34.4419 12.2244 34.1794 12.2417 33.9176V31.6759M34.425 31.6759H12.2417M16.3583 6.65094H30.2583M14.55 9.04261C14.2726 9.05191 14.0075 9.1591 13.8016 9.34518C13.5956 9.53127 13.4622 9.78424 13.425 10.0593L12.3667 17.7426C12.3232 18.0459 12.4 18.3542 12.5806 18.6017C12.7611 18.8492 13.0313 19.0164 13.3333 19.0676H33.1333C33.4415 19.0677 33.7375 18.9476 33.9585 18.7329C34.1795 18.5181 34.308 18.2256 34.3167 17.9176C34.3208 17.8649 34.3208 17.812 34.3167 17.7593L33.2583 10.0759C33.22 9.79392 33.0806 9.53541 32.866 9.34843C32.6514 9.16144 32.3763 9.0587 32.0917 9.05927H14.5917L14.55 9.04261ZM14.1667 23.5926C13.7688 23.591 13.3793 23.7075 13.0478 23.9276C12.7162 24.1476 12.4575 24.4612 12.3045 24.8285C12.1515 25.1958 12.111 25.6003 12.1882 25.9907C12.2654 26.381 12.4569 26.7397 12.7382 27.021C13.0196 27.3024 13.3782 27.4938 13.7686 27.5711C14.1589 27.6483 14.5634 27.6078 14.9307 27.4548C15.2981 27.3017 15.6116 27.043 15.8317 26.7115C16.0517 26.38 16.1683 25.9905 16.1667 25.5926C16.1667 25.0622 15.956 24.5535 15.5809 24.1784C15.2058 23.8033 14.6971 23.5926 14.1667 23.5926ZM32.5 23.5926C32.1024 23.5926 31.7138 23.7106 31.3834 23.9317C31.0529 24.1527 30.7955 24.4669 30.6438 24.8343C30.492 25.2018 30.4527 25.606 30.5309 25.9958C30.6091 26.3856 30.8012 26.7435 31.0829 27.024C31.3646 27.3045 31.7232 27.4951 32.1133 27.5717C32.5035 27.6482 32.9075 27.6073 33.2744 27.454C33.6412 27.3007 33.9543 27.042 34.1739 26.7106C34.3936 26.3793 34.51 25.9902 34.5083 25.5926C34.5095 25.3289 34.4582 25.0677 34.3576 24.824C34.2569 24.5803 34.1089 24.359 33.9221 24.173C33.7353 23.9869 33.5133 23.8398 33.2692 23.7402C33.0251 23.6406 32.7637 23.5904 32.5 23.5926Z" stroke="white" stroke-linecap="round" stroke-linejoin="round"/>
</svg>
